<?xml version="1.0" standalone="no"?>
<!DOCTYPE svg PUBLIC "-//W3C//DTD SVG 20010904//EN"
 "http://www.w3.org/TR/2001/REC-SVG-20010904/DTD/svg10.dtd">
<svg version="1.0" xmlns="http://www.w3.org/2000/svg"
 width="715.000000pt" height="349.000000pt" viewBox="0 0 715.000000 349.000000"
 preserveAspectRatio="xMidYMid meet">
<metadata>
Created by potrace 1.16, written by Peter Selinger 2001-2019
</metadata>
<g transform="translate(0.000000,349.000000) scale(0.100000,-0.100000)"
fill="#000000" stroke="none">
<path d="M3070 2379 c-58 -4 -141 -12 -185 -17 -43 -6 -85 -8 -92 -5 -7 3 -13
2 -13 -1 0 -4 10 -11 23 -16 19 -7 17 -9 -16 -9 -40 -1 -72 -22 -57 -37 18
-18 -6 -30 -78 -42 -153 -26 -240 -90 -262 -196 -31 -148 48 -271 226 -356
l66 -32 52 36 c44 31 53 34 65 21 21 -20 -3 -49 -29 -35 -16 8 -19 6 -22 -18
-2 -21 -8 -27 -28 -27 -14 0 -32 -7 -40 -15 -8 -8 -29 -26 -47 -40 -29 -24
-31 -27 -24 -72 5 -29 4 -51 -3 -58 -13 -13 -29 -13 -20 1 4 7 -1 7 -16 -1
-12 -6 -27 -25 -34 -41 l-12 -29 -28 29 c-22 23 -26 34 -20 57 6 25 5 27 -8
16 -13 -10 -17 -9 -22 10 -3 13 -6 38 -6 56 0 27 -3 32 -25 32 -22 0 -25 -4
-25 -33 0 -54 29 -135 60 -171 17 -18 54 -44 82 -57 49 -22 68 -24 251 -27
l198 -4 23 -51 c26 -58 62 -100 79 -94 13 4 14 41 3 103 l-8 41 55 6 c189 23
307 118 307 249 0 16 5 38 10 49 13 23 6 36 -51 113 -22 30 -63 70 -91 90
l-51 35 27 11 c15 5 38 10 50 10 15 0 26 7 29 20 5 21 31 27 42 10 4 -6 13 -5
25 2 15 10 23 9 39 -6 15 -14 21 -15 21 -6 0 8 14 25 31 40 l31 26 -27 32
c-30 36 -12 47 20 12 10 -11 23 -20 30 -20 18 0 55 39 49 53 -2 7 9 23 26 36
24 17 34 20 45 11 9 -7 15 -8 20 0 10 15 45 12 45 -5 0 -8 -13 -41 -29 -74
-21 -44 -25 -61 -16 -65 25 -9 65 103 65 182 0 51 -1 54 -15 36 -14 -18 -14
-18 -15 11 -1 26 -3 27 -10 10 -7 -18 -8 -18 -15 8 -9 35 -30 29 -30 -9 l0
-29 -41 42 c-28 30 -49 43 -68 43 -39 0 -63 -15 -70 -45 -9 -36 -47 -58 -77
-46 -36 15 -60 37 -57 52 2 9 -6 14 -23 14 -15 0 -35 7 -45 16 -11 9 -28 19
-39 23 -11 4 -15 10 -10 14 6 4 10 25 9 47 -1 35 -6 42 -45 67 -24 15 -46 27
-49 26 -3 -1 -52 -5 -110 -9z m154 -183 c36 -15 36 -16 22 -39 -9 -13 -28 -34
-43 -47 -16 -13 -61 -54 -102 -92 -41 -37 -83 -68 -92 -68 -27 0 -73 44 -93
89 -17 36 -17 45 -5 86 15 51 29 67 74 84 40 15 192 7 239 -13z m93 -634 c2
-41 -41 -85 -129 -133 -54 -29 -73 -34 -133 -35 -38 0 -79 -4 -89 -9 -13 -6
-17 -5 -13 2 4 6 28 18 53 27 52 17 133 81 154 121 18 34 73 62 119 60 33 -1
36 -3 38 -33z m-412 -36 c13 -24 16 -45 12 -75 -6 -50 -21 -69 -67 -89 -43
-18 -197 -18 -259 1 -46 13 -67 37 -33 37 11 0 25 6 31 13 6 8 44 30 83 49
134 65 203 97 209 98 3 0 14 -15 24 -34z"/>
<path d="M1337 1998 c-59 -139 -147 -349 -197 -467 -49 -117 -90 -215 -90
-218 0 -2 12 -3 27 -1 25 3 36 27 197 410 94 224 174 408 177 408 4 0 85 -183
180 -407 l175 -408 252 -3 c139 -1 252 0 252 3 0 6 -312 757 -369 888 l-20 47
-239 0 -239 0 -106 -252z"/>
<path d="M3710 1789 c-107 -253 -197 -465 -199 -471 -2 -5 10 -8 25 -6 27 3
35 18 197 403 92 220 172 404 176 408 5 5 87 -175 183 -400 l175 -408 252 -3
c138 -1 251 1 251 4 0 7 -318 773 -366 882 l-23 52 -238 0 -238 0 -195 -461z"/>
<path d="M4890 1780 l0 -470 235 0 235 0 0 165 0 165 149 0 c239 0 389 35 477
113 65 57 88 107 88 192 0 120 -60 202 -188 253 -112 45 -182 51 -603 52
l-393 0 0 -470z m660 165 l0 -255 -95 0 -95 0 0 255 0 255 95 0 95 0 0 -255z"/>
<path d="M2376 1371 c-16 -17 -15 -18 17 -16 l35 3 -15 -28 c-16 -33 -70 -51
-84 -29 -6 11 -11 10 -26 -3 -12 -10 -29 -14 -50 -11 -36 6 -50 -12 -51 -64 0
-17 -5 -41 -11 -52 -6 -11 -11 -49 -11 -85 0 -57 3 -66 18 -66 12 0 27 19 45
60 16 33 39 67 53 76 13 9 24 24 24 33 1 20 62 88 113 126 35 26 36 29 19 39
-11 6 -29 16 -40 23 -16 10 -22 9 -36 -6z"/>
</g>
</svg>
